<?xml version="1.0" standalone="no"?><!DOCTYPE svg PUBLIC "-//W3C//DTD SVG 1.1//EN" "http://www.w3.org/Graphics/SVG/1.1/DTD/svg11.dtd"><svg class="icon" width="81px" height="77.81px" viewBox="0 0 1066 1024" version="1.1" xmlns="http://www.w3.org/2000/svg"><path fill="#42b970" d="M914.467156 1024H152.411193c-80.092082 0-152.411193-73.106569-152.411193-152.411193 0 0 1.320897-300.732685 1.320897-407.115697 0-50.803731 30.888668-80.092082 74.884699-100.921612v-152.411192c0-62.76801 41.608256-127.009327 101.607462-127.009328h228.616789l50.803731-50.803731c42.395713-44.377059 109.990077-44.377059 152.411193 0l50.803731 50.803731h228.616789c59.973804 0 101.607462 64.241318 101.607462 127.009328v152.411192c40.922405 21.642389 76.205596 53.115301 76.205596 101.607462v406.429847c0 79.304624-72.319111 152.411193-152.411193 152.411193z m76.205597-508.037309c0-37.137527-34.876761-77.907521-75.240326-77.907521l-0.965271 1.701925v-203.214924c0-50.194086-26.265529-76.205596-76.205596-76.205596H228.616789c-49.940067 0-76.205596 26.01151-76.205596 76.205596v203.214924c-40.363564 0-76.205596 39.068069-76.205597 76.205596v381.027982c0 37.137527 35.842032 50.803731 76.205597 50.803731h762.055963c40.363564 0 76.205596-39.068069 76.205597-76.205597v-355.626116z m-436.607264 275.61024a30.990276 30.990276 0 0 1-28.399285 0.355626c-256.762056-127.542766-234.916452-280.741417-233.849574-287.168089-0.431832-1.981346 0.431832-65.740028 42.725938-108.110339 23.115698-23.166501 53.216908-34.851359 89.516174-34.851359 54.893431 0 92.107164 25.884501 115.324469 55.299861 23.674539-29.034332 60.812066-54.74102 114.359198-55.299861 98.686247 0 133.918635 83.572137 133.842429 139.735661 2.489383 108.364358-78.263147 207.863465-233.519349 290.0385z m101.404247-367.869815c-67.086327 0.68585-86.086922 64.977972-86.87438 67.695971-3.861084 13.539194-17.044652 21.10895-30.63465 22.582259a30.939472 30.939472 0 0 1-29.567771-23.776147c-1.625719-6.604485-18.492558-66.502084-84.283389-66.502083-19.457829 0-34.267116 5.461401-45.46934 16.663623-20.677118 20.677118-25.147847 57.890851-25.071641 69.296289-0.965271 9.093868-11.98968 116.264338 185.509824 219.624529 122.157571-67.797579 188.253225-147.000595 186.525898-224.095257-0.050804-6.8077-0.81286-81.489184-70.134551-81.489184z" /></svg>